<svg id="visual" viewBox="0 0 960 300" width="960" height="300" xmlns="http://www.w3.org/2000/svg" xmlns:xlink="http://www.w3.org/1999/xlink" version="1.1"><rect x="0" y="0" width="960" height="300" fill="#9DC08B"></rect><defs><linearGradient id="grad1_0" x1="68.8%" y1="0%" x2="100%" y2="100%"><stop offset="-14.000000000000007%" stop-color="#9dc08b" stop-opacity="1"></stop><stop offset="114.00000000000001%" stop-color="#9dc08b" stop-opacity="1"></stop></linearGradient></defs><defs><linearGradient id="grad2_0" x1="0%" y1="0%" x2="31.3%" y2="100%"><stop offset="-14.000000000000007%" stop-color="#9dc08b" stop-opacity="1"></stop><stop offset="114.00000000000001%" stop-color="#9dc08b" stop-opacity="1"></stop></linearGradient></defs><g transform="translate(960, 0)"><path d="M0 270C-38.1 269.6 -76.3 269.3 -103.3 249.4C-130.4 229.6 -146.3 190.4 -160.5 160.5C-174.7 130.6 -187.1 110.1 -205.1 85C-223.1 59.8 -246.5 29.9 -270 0L0 0Z" fill="#609966"></path></g><g transform="translate(0, 300)"><path d="M0 -270C25 -240.8 50.1 -211.6 83.8 -202.3C117.6 -193.1 160.1 -203.7 190.2 -190.2C220.4 -176.7 238.2 -139.1 249.4 -103.3C260.7 -67.6 265.3 -33.8 270 0L0 0Z" fill="#609966"></path></g></svg>