<svg id="visual" viewBox="0 0 960 300" width="960" height="300" xmlns="http://www.w3.org/2000/svg" xmlns:xlink="http://www.w3.org/1999/xlink" version="1.1"><path d="M0 175L22.8 181.2C45.7 187.3 91.3 199.7 137 205.3C182.7 211 228.3 210 274 210C319.7 210 365.3 211 411.2 207.3C457 203.7 503 195.3 548.8 197C594.7 198.7 640.3 210.3 686 212.7C731.7 215 777.3 208 823 200.2C868.7 192.3 914.3 183.7 937.2 179.3L960 175L960 301L937.2 301C914.3 301 868.7 301 823 301C777.3 301 731.7 301 686 301C640.3 301 594.7 301 548.8 301C503 301 457 301 411.2 301C365.3 301 319.7 301 274 301C228.3 301 182.7 301 137 301C91.3 301 45.7 301 22.8 301L0 301Z" fill="#9dc08b"></path><path d="M0 229L22.8 223.7C45.7 218.3 91.3 207.7 137 208C182.7 208.3 228.3 219.7 274 225.3C319.7 231 365.3 231 411.2 226.8C457 222.7 503 214.3 548.8 215C594.7 215.7 640.3 225.3 686 228.8C731.7 232.3 777.3 229.7 823 229.8C868.7 230 914.3 233 937.2 234.5L960 236L960 301L937.2 301C914.3 301 868.7 301 823 301C777.3 301 731.7 301 686 301C640.3 301 594.7 301 548.8 301C503 301 457 301 411.2 301C365.3 301 319.7 301 274 301C228.3 301 182.7 301 137 301C91.3 301 45.7 301 22.8 301L0 301Z" fill="#8eb681"></path><path d="M0 221L22.8 224C45.7 227 91.3 233 137 235.7C182.7 238.3 228.3 237.7 274 235.8C319.7 234 365.3 231 411.2 228.2C457 225.3 503 222.7 548.8 226.8C594.7 231 640.3 242 686 245.3C731.7 248.7 777.3 244.3 823 240C868.7 235.7 914.3 231.3 937.2 229.2L960 227L960 301L937.2 301C914.3 301 868.7 301 823 301C777.3 301 731.7 301 686 301C640.3 301 594.7 301 548.8 301C503 301 457 301 411.2 301C365.3 301 319.7 301 274 301C228.3 301 182.7 301 137 301C91.3 301 45.7 301 22.8 301L0 301Z" fill="#7fac78"></path><path d="M0 266L22.8 265.5C45.7 265 91.3 264 137 260C182.7 256 228.3 249 274 247.3C319.7 245.7 365.3 249.3 411.2 253C457 256.7 503 260.3 548.8 260.5C594.7 260.7 640.3 257.3 686 256.5C731.7 255.7 777.3 257.3 823 255.3C868.7 253.3 914.3 247.7 937.2 244.8L960 242L960 301L937.2 301C914.3 301 868.7 301 823 301C777.3 301 731.7 301 686 301C640.3 301 594.7 301 548.8 301C503 301 457 301 411.2 301C365.3 301 319.7 301 274 301C228.3 301 182.7 301 137 301C91.3 301 45.7 301 22.8 301L0 301Z" fill="#70a26f"></path><path d="M0 282L22.8 282.5C45.7 283 91.3 284 137 283C182.7 282 228.3 279 274 279C319.7 279 365.3 282 411.2 283C457 284 503 283 548.8 280.2C594.7 277.3 640.3 272.7 686 272.3C731.7 272 777.3 276 823 276.3C868.7 276.7 914.3 273.3 937.2 271.7L960 270L960 301L937.2 301C914.3 301 868.7 301 823 301C777.3 301 731.7 301 686 301C640.3 301 594.7 301 548.8 301C503 301 457 301 411.2 301C365.3 301 319.7 301 274 301C228.3 301 182.7 301 137 301C91.3 301 45.7 301 22.8 301L0 301Z" fill="#609966"></path></svg>