<?xml version="1.0" standalone="no"?>
<svg xmlns:xlink="http://www.w3.org/1999/xlink" id="wave" style="transform:rotate(180deg); transition: 0.3s" viewBox="0 0 1440 280" version="1.1" xmlns="http://www.w3.org/2000/svg"><defs><linearGradient id="sw-gradient-0" x1="0" x2="0" y1="1" y2="0"><stop stop-color="rgba(96, 153, 102, 1)" offset="0%"/><stop stop-color="rgba(237, 241, 214, 1)" offset="100%"/></linearGradient></defs><path style="transform:translate(0, 0px); opacity:1" fill="url(#sw-gradient-0)" d="M0,84L21.8,74.7C43.6,65,87,47,131,51.3C174.5,56,218,84,262,98C305.5,112,349,112,393,135.3C436.4,159,480,205,524,210C567.3,215,611,177,655,163.3C698.2,149,742,159,785,144.7C829.1,131,873,93,916,93.3C960,93,1004,131,1047,121.3C1090.9,112,1135,56,1178,70C1221.8,84,1265,168,1309,205.3C1352.7,243,1396,233,1440,219.3C1483.6,205,1527,187,1571,163.3C1614.5,140,1658,112,1702,84C1745.5,56,1789,28,1833,18.7C1876.4,9,1920,19,1964,37.3C2007.3,56,2051,84,2095,79.3C2138.2,75,2182,37,2225,18.7C2269.1,0,2313,0,2356,18.7C2400,37,2444,75,2487,98C2530.9,121,2575,131,2618,116.7C2661.8,103,2705,65,2749,74.7C2792.7,84,2836,140,2880,149.3C2923.6,159,2967,121,3011,107.3C3054.5,93,3098,103,3120,107.3L3141.8,112L3141.8,280L3120,280C3098.2,280,3055,280,3011,280C2967.3,280,2924,280,2880,280C2836.4,280,2793,280,2749,280C2705.5,280,2662,280,2618,280C2574.5,280,2531,280,2487,280C2443.6,280,2400,280,2356,280C2312.7,280,2269,280,2225,280C2181.8,280,2138,280,2095,280C2050.9,280,2007,280,1964,280C1920,280,1876,280,1833,280C1789.1,280,1745,280,1702,280C1658.2,280,1615,280,1571,280C1527.3,280,1484,280,1440,280C1396.4,280,1353,280,1309,280C1265.5,280,1222,280,1178,280C1134.5,280,1091,280,1047,280C1003.6,280,960,280,916,280C872.7,280,829,280,785,280C741.8,280,698,280,655,280C610.9,280,567,280,524,280C480,280,436,280,393,280C349.1,280,305,280,262,280C218.2,280,175,280,131,280C87.3,280,44,280,22,280L0,280Z"/></svg>