<svg id="visual" viewBox="0 0 960 300" width="960" height="300" xmlns="http://www.w3.org/2000/svg" xmlns:xlink="http://www.w3.org/1999/xlink" version="1.1"><rect x="0" y="0" width="960" height="300" fill="#001220"></rect><path d="M0 123L22.8 116.8C45.7 110.7 91.3 98.3 137 92.7C182.7 87 228.3 88 274 88C319.7 88 365.3 87 411.2 90.7C457 94.3 503 102.7 548.8 101C594.7 99.3 640.3 87.7 686 85.3C731.7 83 777.3 90 823 97.8C868.7 105.7 914.3 114.3 937.2 118.7L960 123L960 0L937.2 0C914.3 0 868.7 0 823 0C777.3 0 731.7 0 686 0C640.3 0 594.7 0 548.8 0C503 0 457 0 411.2 0C365.3 0 319.7 0 274 0C228.3 0 182.7 0 137 0C91.3 0 45.7 0 22.8 0L0 0Z" fill="#9dc08b"></path><path d="M0 69L22.8 74.3C45.7 79.7 91.3 90.3 137 90C182.7 89.7 228.3 78.3 274 72.7C319.7 67 365.3 67 411.2 71.2C457 75.3 503 83.7 548.8 83C594.7 82.3 640.3 72.7 686 69.2C731.7 65.7 777.3 68.3 823 68.2C868.7 68 914.3 65 937.2 63.5L960 62L960 0L937.2 0C914.3 0 868.7 0 823 0C777.3 0 731.7 0 686 0C640.3 0 594.7 0 548.8 0C503 0 457 0 411.2 0C365.3 0 319.7 0 274 0C228.3 0 182.7 0 137 0C91.3 0 45.7 0 22.8 0L0 0Z" fill="#8eb681"></path><path d="M0 77L22.8 74C45.7 71 91.3 65 137 62.3C182.7 59.7 228.3 60.3 274 62.2C319.7 64 365.3 67 411.2 69.8C457 72.7 503 75.3 548.8 71.2C594.7 67 640.3 56 686 52.7C731.7 49.3 777.3 53.7 823 58C868.7 62.3 914.3 66.7 937.2 68.8L960 71L960 0L937.2 0C914.3 0 868.7 0 823 0C777.3 0 731.7 0 686 0C640.3 0 594.7 0 548.8 0C503 0 457 0 411.2 0C365.3 0 319.7 0 274 0C228.3 0 182.7 0 137 0C91.3 0 45.7 0 22.8 0L0 0Z" fill="#7fac78"></path><path d="M0 32L22.8 32.5C45.7 33 91.3 34 137 38C182.7 42 228.3 49 274 50.7C319.7 52.3 365.3 48.7 411.2 45C457 41.3 503 37.7 548.8 37.5C594.7 37.3 640.3 40.7 686 41.5C731.7 42.3 777.3 40.7 823 42.7C868.7 44.7 914.3 50.3 937.2 53.2L960 56L960 0L937.2 0C914.3 0 868.7 0 823 0C777.3 0 731.7 0 686 0C640.3 0 594.7 0 548.8 0C503 0 457 0 411.2 0C365.3 0 319.7 0 274 0C228.3 0 182.7 0 137 0C91.3 0 45.7 0 22.8 0L0 0Z" fill="#70a26f"></path><path d="M0 16L22.8 15.5C45.7 15 91.3 14 137 15C182.7 16 228.3 19 274 19C319.7 19 365.3 16 411.2 15C457 14 503 15 548.8 17.8C594.7 20.7 640.3 25.3 686 25.7C731.7 26 777.3 22 823 21.7C868.7 21.3 914.3 24.7 937.2 26.3L960 28L960 0L937.2 0C914.3 0 868.7 0 823 0C777.3 0 731.7 0 686 0C640.3 0 594.7 0 548.8 0C503 0 457 0 411.2 0C365.3 0 319.7 0 274 0C228.3 0 182.7 0 137 0C91.3 0 45.7 0 22.8 0L0 0Z" fill="#609966"></path></svg>